<svg xmlns="http://www.w3.org/2000/svg" width="256" height="256"><path fill-opacity=".016" d="M0 128.004v128.004l128.25-.254 128.25-.254.254-127.75L257.008 0H0v128.004m.485.496c0 70.4.119 99.053.265 63.672.146-35.38.146-92.98 0-128C.604 29.153.485 58.1.485 128.5" fill="#1976D2" fill-rule="evenodd"/><path fill-opacity=".063" d="M254.158 8c0 1.375.227 1.938.504 1.25.278-.687.278-1.812 0-2.5-.277-.687-.504-.125-.504 1.25M2.37 17c0 5.775.165 8.138.367 5.25.202-2.887.202-7.612 0-10.5-.202-2.887-.367-.525-.367 5.25m133.872 57.24.258 56.26 3 .143c1.65.078 4.463.191 6.25.25L149 131v16c0 8.8.364 16 .809 16 .445 0 3.022-2.587 5.727-5.75 2.705-3.162 7.611-8.559 10.902-11.993 3.291-3.434 6.54-7.259 7.22-8.5.835-1.525 1.226-7.282 1.206-17.757l-.03-15.5 15.09-.5c14.726-.488 15.143-.563 17.333-3.1 1.233-1.43 5.24-5.93 8.903-10 12.324-13.692 11.048-8.777 10.945-42.182l-.091-29.218-45.515-.26-45.516-.26.259 56.26M119.5 26.605c-4.95 3.575-10.8 7.741-13 9.257-2.2 1.517-6.925 4.8-10.5 7.297-15.117 10.559-18.542 12.838-19.288 12.84-.433 0-.658-2.362-.5-5.249l.288-5.25h-17l-.315 12-.316 12-6.127 4C39.226 82.323 39 82.553 39 87.506c0 5.359 1.091 5.617 6 1.421l3.5-2.991.262 39.005.261 39.004 31.739.278c17.456.152 32.533.11 33.506-.094 1.605-.337 1.759-1.831 1.677-16.229-.049-8.721.195-16.317.542-16.879.347-.561 3.754-1.021 7.572-1.021H131V75c0-43.362-.265-54.989-1.25-54.947-.687.029-5.3 2.978-10.25 6.552M2.158 31c0 1.375.227 1.938.504 1.25.278-.687.278-1.812 0-2.5-.277-.687-.504-.125-.504 1.25m.142 9c0 3.025.187 4.263.416 2.75.229-1.513.229-3.987 0-5.5S2.3 36.975 2.3 40m.157 47c0 22.825.131 32.163.292 20.75.16-11.412.16-30.087 0-41.5-.161-11.412-.292-2.075-.292 20.75m-.262 49.5c.02 1.65.244 2.204.498 1.231.254-.973.237-2.323-.037-3-.274-.677-.481.119-.461 1.769m-.037 6.5c0 1.375.227 1.938.504 1.25.278-.687.278-1.812 0-2.5-.277-.687-.504-.125-.504 1.25M120 145c0 1.333.667 2 2 2s2-.667 2-2-.667-2-2-2-2 .667-2 2M2.389 161.5c.001 7.15.161 9.944.353 6.208.193-3.735.192-9.585-.003-13-.194-3.414-.352-.358-.35 6.792m54.339 16.194c-1.628.424-1.75 1.971-1.5 19.134L55.5 215.5h9l.296-6.75.295-6.75h4.307c4.878 0 10.285-3.07 12.38-7.03 1.832-3.463 1.013-11.205-1.468-13.867-1.104-1.186-3.536-2.594-5.402-3.13-3.395-.973-14.84-1.149-18.18-.279m33-.056c-1.627.475-1.749 2.045-1.5 19.19L88.5 215.5l2.352.333c1.293.183 3.431.062 4.75-.269C97.846 215 98 214.514 98 207.981c0-5.988.249-6.979 1.75-6.966 3.281.029 5.51 3.294 6.817 9.985.377 1.925 1.19 3.831 1.809 4.235 1.638 1.07 7.405.928 8.103-.201.843-1.363-2.376-12.02-4.571-15.136-1.805-2.562-1.797-2.634.529-4.656 4.563-3.968 4.187-11.94-.736-15.616-2.136-1.595-4.499-2.061-11.446-2.258-4.815-.136-9.552-.015-10.527.27m32.118 1.555c-.439 6.609-.553 33.555-.147 35.11.375 1.441 1.307 1.743 4.635 1.5l4.166-.303v-38l-4.25-.307c-3.825-.277-4.265-.078-4.404 2m16.404-1.09c-1.48 1.536-1.778 34.515-.332 36.798.704 1.113 2.958 1.286 10.961.845 14.401-.793 19.325-4.223 22.156-15.432 1.136-4.496 1.093-5.86-.326-10.253-1.737-5.378-3.47-7.66-8.039-10.585-3.676-2.352-22.457-3.408-24.42-1.373m38.349.616c-.669 2.141-.547 34.25.136 36.031.344.898 3.668 1.25 11.813 1.25 12.047 0 12.85-.311 12.855-4.978.002-2.453-.209-2.53-7.7-2.814l-7.703-.292V200h5.878c5.915 0 7.803-1.007 7.503-4-.083-.825-.202-2.062-.266-2.75-.079-.86-2.143-1.25-6.615-1.25H186v-6.912l7.25-.294 7.25-.294v-7l-11.673-.281c-10.463-.252-11.73-.097-12.228 1.5M65 189.5c0 5.057.184 5.5 2.277 5.5 3.352 0 6.723-2.758 6.723-5.5s-3.371-5.5-6.723-5.5c-2.093 0-2.277.443-2.277 5.5m32.847-.499c-.338 4.872-.277 5 2.403 5 2.936-.001 6.75-3.069 6.75-5.43 0-2.325-2.936-4.571-5.975-4.571-2.686 0-2.85.259-3.178 5.001M147 196.372c0 13.752-.201 13.367 6.074 11.624 5-1.389 8.063-5.004 8.629-10.184.874-7.996-2.324-12.092-10.453-13.389l-4.25-.679v12.628M2.079 190.583c.048 1.165.285 1.402.604.605.289-.722.253-1.585-.079-1.917-.332-.332-.568.258-.525 1.312m.173 5.917c.011 2.2.216 2.982.455 1.738.239-1.244.23-3.044-.02-4s-.446.062-.435 2.262m.097 17.5c0 4.675.173 6.588.383 4.25.211-2.338.211-6.162 0-8.5-.21-2.338-.383-.425-.383 4.25m53.267 6.812c-.67 1.085.088 15.9.88 17.181 1.473 2.384 3.504.939 3.504-2.493 0-3.18.26-3.5 2.845-3.5 5.415 0 8.254-6.79 4.326-10.345-1.909-1.727-10.616-2.363-11.555-.843m15.808.526c-.283.737-.381 4.899-.219 9.25.266 7.147.488 7.912 2.295 7.912 1.533 0 2.074-.773 2.318-3.31.237-2.472.744-3.229 2-2.99.925.176 1.84 1.441 2.033 2.81.361 2.566 1.717 3.948 3.899 3.975 1.606.019 1.611-3.433.009-5.999-.987-1.581-.987-2.391 0-3.972 1.862-2.982 1.502-5.718-.982-7.457-2.765-1.937-10.636-2.089-11.353-.219m18.028 1.308c-3.434 3.705-3.432 10.464.003 13.899 6.189 6.189 16.769-.205 15.096-9.123-1.325-7.067-10.335-9.916-15.099-4.776m17.41.104c-.201 1.512-.213 5.787-.028 9.5.293 5.866.587 6.75 2.251 6.75 1.522 0 1.915-.719 1.915-3.5 0-3.148.277-3.502 2.75-3.515 3.67-.021 4.956-.967 5.781-4.252.461-1.838.149-3.573-.944-5.24-1.37-2.092-2.416-2.493-6.497-2.493-4.55 0-4.886.177-5.228 2.75m15.562-1.412c-.283.737-.381 4.899-.219 9.25l.295 7.912 5.75.3c5.228.273 5.75.114 5.75-1.75 0-1.676-.638-2.05-3.5-2.05-2.833 0-3.5-.381-3.5-2 0-1.627.667-2 3.573-2 2.867 0 3.506-.346 3.232-1.75-.232-1.187-1.299-1.762-3.317-1.786-4.42-.054-4.687-3.225-.306-3.646 2.19-.211 3.413-.907 3.633-2.068.284-1.498-.476-1.75-5.273-1.75-3.759 0-5.774.441-6.118 1.338m14.399 7.185c-.378 9.969-.268 10.477 2.26 10.477 1.532 0 1.917-.718 1.917-3.573 0-2.856.349-3.506 1.739-3.239.956.184 1.904 1.23 2.107 2.323.485 2.613 2.063 4.489 3.776 4.489 1.735 0 1.85-5.128.153-6.825-.967-.967-.967-1.639 0-3.186 3.131-5.015.023-8.989-7.03-8.989h-4.598l-.324 8.523m14.913-7.925c-1.108 1.107.462 3.402 2.327 3.402 1.602 0 1.889.97 2.143 7.25.27 6.653.479 7.276 2.544 7.57 2.162.307 2.25.025 2.25-7.181 0-7.006.148-7.521 2.24-7.819 1.232-.176 2.39-1.107 2.573-2.07.292-1.53-.535-1.75-6.573-1.75-3.799 0-7.176.269-7.504.598m16.074.097c-.207.443-.348 4.63-.313 9.305.057 7.77.231 8.5 2.032 8.5 1.815 0 1.971-.711 1.971-8.986 0-7.571-.261-9.037-1.657-9.306-.911-.175-1.826.044-2.033.487m7.402 8.555.288 9.25 5.75.3c5.228.273 5.75.114 5.75-1.75 0-1.676-.638-2.05-3.5-2.05-2.833 0-3.5-.381-3.5-2 0-1.539.667-2 2.893-2 1.591 0 3.135-.631 3.431-1.402.739-1.927-.163-2.598-3.491-2.598-1.852 0-2.833-.52-2.833-1.5 0-1.048 1.056-1.5 3.5-1.5 2.833 0 3.5-.381 3.5-2 0-1.779-.667-2-6.038-2h-6.037l.287 9.25m16.607-8c-3.783 3.024-2.04 8.139 3.431 10.07.963.339 1.75 1.254 1.75 2.032 0 1.795-3.205 2.672-5.358 1.468-1.343-.752-1.642-.431-1.642 1.76 0 2.585.16 2.662 4.499 2.173 5.411-.61 7.501-2.146 7.501-5.515 0-2.616-1.858-4.621-5.81-6.27-2.88-1.202-1.805-3.319 1.377-2.71 2.34.447 4.017-1.504 2.877-3.348-.829-1.342-6.817-1.106-8.625.34M76 225.5c0 1.578.565 2.5 1.531 2.5 2.09 0 3.089-2.994 1.365-4.086C76.646 222.49 76 222.843 76 225.5m-16 1c0 2.787 2.065 3.331 3.964 1.044 1.512-1.823.53-3.544-2.023-3.544-1.404 0-1.941.692-1.941 2.5m32.667-1.833c-.95.95-.797 7.579.211 9.17.467.736 1.913 1.186 3.215 1 5.189-.739 4.812-10.837-.405-10.837-1.295 0-2.655.3-3.021.667M111 226.5c0 2.787 2.065 3.331 3.964 1.044 1.512-1.823.53-3.544-2.023-3.544-1.404 0-1.941.692-1.941 2.5m30-.5c0 1.646.518 2.065 2.25 1.82 1.238-.176 2.25-.995 2.25-1.82 0-.825-1.012-1.644-2.25-1.82-1.732-.245-2.25.174-2.25 1.82m-138.921.583c.048 1.165.285 1.402.604.605.289-.722.253-1.585-.079-1.917-.332-.332-.568.258-.525 1.312M2.36 239c0 5.225.169 7.363.375 4.75.206-2.613.206-6.887 0-9.5-.206-2.613-.375-.475-.375 4.75m-.281 13.75L2 255h253l-.079-2.25c-.043-1.238-.306-1.687-.583-1-.741 1.836-250.935 1.836-251.676 0-.277-.687-.54-.238-.583 1" fill="#1976D2" fill-rule="evenodd"/><path fill-opacity=".2" d="m143.742 18.792-7.759.292.259 55.208.258 55.208 6.25.298 6.25.297v15.786c0 8.682.279 16.065.621 16.406.341.342 2.478-1.572 4.75-4.252 2.271-2.679 7.617-8.673 11.879-13.318l7.75-8.446V102h30.451l3.864-4.25c2.125-2.338 7.241-8.065 11.369-12.728l7.504-8.478-.401-28.869-.401-28.868-37.443-.154c-20.594-.084-40.934-.022-45.201.139M124.5 24.113c-2.2 1.621-5.125 3.718-6.5 4.658-2.872 1.964-10.992 7.848-12.553 9.098-.579.463-3.054 2.14-5.5 3.727-2.446 1.587-4.672 3.16-4.947 3.495-.275.335-1.587 1.182-2.915 1.883-1.328.7-5.09 3.242-8.36 5.649C80.455 55.031 77.379 57 76.89 57c-.49 0-.89-2.466-.89-5.481 0-6.358-.787-6.854-10.053-6.328L60.5 45.5l-.279 12.035-.279 12.035-4.721 3.195c-14.741 9.977-14.69 9.93-15.29 14.206-.313 2.232-.366 4.26-.118 4.508.248.248 2.272-1.108 4.499-3.014C46.538 86.559 48.724 85 49.168 85c.445 0 .927 17.662 1.07 39.25l.262 39.25h64l.185-13c.102-7.15.215-14.912.25-17.25L115 129h15V75c0-29.7-.338-53.963-.75-53.918-.412.045-2.55 1.409-4.75 3.031M177 47c0 .55.477 1 1.059 1s.781-.45.441-1-.816-1-1.059-1-.441.45-.441 1m13 0c-.825.533-1.05.969-.5.969s1.675-.436 2.5-.969c.825-.533 1.05-.969.5-.969s-1.675.436-2.5.969m2 3c0 .55.45 1 1 1s1-.45 1-1-.45-1-1-1-1 .45-1 1m-23 5.094c0 .498.9.906 2 .906s2-.173 2-.383c0-.211-.9-.619-2-.907-1.1-.287-2-.115-2 .384m22.813.589c.721.289 1.584.253 1.916-.079.332-.332-.258-.568-1.312-.525-1.165.048-1.402.285-.604.604m-22.545 12.734c.127 1.055.907 2.101 1.732 2.326.965.263 1.107.114.4-.417-.605-.454-1.385-1.501-1.732-2.326-.445-1.054-.564-.93-.4.417M86.813 79.683c.721.289 1.584.253 1.916-.079.332-.332-.258-.568-1.312-.525-1.165.048-1.402.285-.604.604m-.122 14.954c.746 1.945 2.88 2.289 2.88.464 0-.92-.752-1.672-1.672-1.672-.919 0-1.463.543-1.208 1.208M99.5 95c-.34.55.335 1 1.5 1s1.84-.45 1.5-1c-.34-.55-1.015-1-1.5-1-.485 0-1.16.45-1.5 1m20.839 49.56c-.751 1.957.152 2.849 2.118 2.095 1.978-.759 1.981-2.273.005-3.031-.885-.34-1.786.057-2.123.936M59.75 177.758l-3.75.363V215h8v-13h3.378c7.68 0 14.476-5.195 15.243-11.652.903-7.595-4.031-12.349-13.197-12.716-3.258-.131-7.611-.074-9.674.126m32.5-.035c-3.681.457-3.319-1.757-3.319 20.277 0 6.6.016 13.125.035 14.5.03 2.244.443 2.5 4.034 2.5h4v-7.5c0-7.121.114-7.498 2.25-7.468 3.742.053 5.604 2.334 6.978 8.549l1.308 5.919 4.33.312 4.331.313-.717-4.313c-.75-4.512-2.768-9.22-5.091-11.881-1.189-1.36-.973-1.862 1.62-3.78 2.598-1.92 2.991-2.841 2.991-7.007 0-3.812-.509-5.273-2.48-7.125-3.386-3.181-11.094-4.434-20.27-3.296m49.5-.054-3.75.452v36.841l2.602.653c3.982.999 16.038-.426 20.099-2.376 1.992-.956 5-3.453 6.684-5.549 2.815-3.503 3.064-4.431 3.088-11.542.031-8.953-1.305-11.754-7.462-15.641-4.099-2.588-13.225-3.806-21.261-2.838M122 196.557v18.558l4.243-.308c3.511-.254 4.227-.652 4.152-2.307-.05-1.1-.159-9.312-.243-18.25L130 178h-8v18.557m55-.025v18.531l11.703-.281 11.703-.282.047-2.875.047-2.876-7.5-.124-7.5-.125v-9l6.75-.296c6.718-.294 6.75-.309 6.75-3.204s-.032-2.91-6.75-3.204l-6.75-.296v-8l7.25-.294 7.25-.294V178h-23v18.532M64.494 183.839c-.272.272-.494 2.908-.494 5.859 0 6.341 1.433 7.42 6.591 4.96 2.89-1.378 3.409-2.143 3.409-5.019 0-1.867-.562-3.843-1.25-4.391-1.412-1.126-7.5-2.165-8.256-1.409m33.249-.249c-.409.409-.743 2.918-.743 5.577V194h3.429c1.885 0 4.135-.707 5-1.571 1.925-1.926 2.045-5.791.226-7.301-1.773-1.47-6.969-2.481-7.912-1.538M146 196.383c0 11.327.162 12.426 1.9 12.881 3.156.825 6.728-.308 10.256-3.253 3.224-2.692 3.344-3.05 3.344-9.996 0-6.805-.166-7.338-3-9.605-2.216-1.773-4.241-2.401-7.75-2.405L146 184v12.383m-86.75 24.405c-2.13.332-2.25.807-2.25 8.865 0 6.38.313 8.403 1.25 8.071.688-.243 1.165-1.631 1.062-3.083-.125-1.756.31-2.641 1.299-2.641.819 0 2.843-.7 4.498-1.556 2.531-1.309 2.96-2.064 2.7-4.75-.239-2.474-.726-3.123-2.159-2.877-1.018.174-1.586-.112-1.262-.636.707-1.143-2.015-1.881-5.138-1.393m33.25 1.053c-4.545 2.777-5.99 6.144-4.532 10.561 1.33 4.03 3.525 5.614 7.716 5.566 8.002-.09 10.993-11.214 4.298-15.981-3.414-2.431-3.733-2.437-7.482-.146m35.501-.941-4.5.6-.221 5c-.122 2.75.011 6.463.295 8.25.492 3.103.717 3.25 4.97 3.25 2.45 0 4.455-.45 4.455-1s-1.575-1-3.5-1c-3.025 0-3.5-.325-3.5-2.393 0-2.475 1.647-3.607 5.248-3.607 2.717 0 1.429-1.286-1.498-1.496-1.269-.091-2.784-1.217-3.474-2.583-1.184-2.343-1.096-2.431 2.75-2.728 2.653-.206 3.974-.787 3.974-1.75 0-.794-.113-1.375-.25-1.293-.137.083-2.275.42-4.749.75m24.443-.011c-.827.827.764 2.111 2.615 2.111 1.749 0 1.941.743 1.941 7.5 0 5.49.349 7.5 1.301 7.5.922 0 1.33-1.872 1.403-6.438.115-7.299.61-8.562 3.355-8.562 1.068 0 1.941-.562 1.941-1.25 0-.863-1.883-1.25-6.083-1.25-3.346 0-6.259.175-6.473.389m-80.225 8.645c.156 7.105.447 8.482 1.734 8.225 1.015-.203 1.544-1.419 1.537-3.534-.011-3.77 2.747-4.519 4.51-1.225.589 1.1 1.74 2 2.558 2 1.273 0 1.249-.365-.167-2.526-1.531-2.336-1.532-2.66-.023-4.328 3.647-4.03.905-7.146-6.287-7.146h-4.05l.188 8.534M108 229.5c0 5 .412 8.5 1 8.5.55 0 1-1.35 1-3 0-2.63.351-3 2.845-3 3.47 0 6.155-2.746 6.155-6.294 0-3.152-2.455-4.706-7.434-4.706H108v8.5m30.284-.333c.128 4.853.661 8.316 1.313 8.532.629.21 1.135-.971 1.186-2.769.049-1.725.364-3.411.701-3.747 1.054-1.055 3.945 1.4 4.521 3.838.785 3.325 2.995 3.74 2.995.562 0-1.421-.525-2.583-1.167-2.583-.641 0-.87-.296-.508-.658.362-.362.2-1.209-.359-1.883-.718-.865-.568-1.398.508-1.811 2.068-.793 1.931-4.62-.224-6.256-.963-.731-3.422-1.343-5.466-1.36l-3.716-.032.216 8.167m29.995.334c-.181 6.915.052 8.499 1.25 8.499 1.179 0 1.471-1.684 1.471-8.5 0-6.134-.348-8.5-1.25-8.499-.885 0-1.315 2.486-1.471 8.5m7.721-.608c0 8.793.244 9.107 7.082 9.107 2.547 0 3.918-.455 3.918-1.299 0-.895-1.084-1.173-3.484-.893-3.029.354-3.616.058-4.5-2.266-1.384-3.641-1.453-3.542 2.484-3.542 4.082 0 4.746-1.719.844-2.184-1.864-.222-2.757-.987-2.994-2.566-.295-1.968.1-2.25 3.156-2.25 1.922 0 3.494-.45 3.494-1s-2.25-1-5-1h-5v7.893m15.571-6.322c-1.556 1.557-2.102 3.429-1 3.429.315 0 1.247-.675 2.072-1.5s2.818-1.5 4.428-1.5c1.611 0 2.929-.45 2.929-1 0-1.605-6.707-1.151-8.429.571M110 226.086c0 4.379-.111 4.287 3.504 2.912 3.556-1.352 3.096-5.071-.754-6.094-2.656-.706-2.75-.597-2.75 3.182m30.67-1.933c-.834 3.191.316 5.663 2.383 5.123 4.472-1.17 4.788-5.691.456-6.519-1.685-.322-2.493.075-2.839 1.396m-80.924.097c-.801 2.38.446 4.554 2.879 5.019 1.344.257 2.208.23 1.918-.059-.289-.289-.024-1.13.588-1.868.824-.993.79-1.732-.131-2.842-1.511-1.821-4.675-1.971-5.254-.25m15.438 1.491c.38 3.296 3.381 4.237 5.27 1.653 1.607-2.198-.116-4.394-3.449-4.394-1.741 0-2.079.509-1.821 2.741m16.968-1.425C89.112 227.98 91.35 236 95.413 236c2.928 0 4.254-1.57 4.918-5.826.861-5.52-4.985-9.706-8.179-5.858M192 227.837c0 .58 1.232 1.644 2.738 2.366 3.447 1.652 4.026 4.318 1.258 5.799-1.608.861-2.478.843-3.584-.075-1.626-1.35-2.979-.653-1.953 1.006.898 1.453 7.855 1.353 9.341-.133 1.743-1.743 1.47-5.247-.55-7.067-2.234-2.014-7.25-3.325-7.25-1.896M81.5 237c.34.55 1.041 1 1.559 1s.941-.45.941-1-.702-1-1.559-1-1.281.45-.941 1m172 17c-.34.55-.141 1 .441 1s1.059-.45 1.059-1-.198-1-.441-1-.719.45-1.059 1m-188.172.75c34.555.146 90.805.146 125 0 34.194-.146 5.922-.265-62.828-.265s-96.728.119-62.172.265" fill="#1976D2" fill-rule="evenodd"/><path fill-opacity=".218" d="M137 73.925v54.98l6.25.297c5.443.26 6.263.556 6.352 2.298.056 1.1.169 8.409.25 16.241l.148 14.242 8.25-9.168a3608.783 3608.783 0 0 0 12-13.395l3.75-4.227V102l12.25-.156c6.738-.085 13.331-.057 14.652.062 1.748.158 3.989-1.365 8.234-5.594 3.208-3.197 5.84-6.599 5.848-7.562.009-.962.415-1.637.903-1.5.488.138 2.953-2 5.478-4.75l4.591-5 .022-29.192.022-29.193-44.5-.084-44.5-.085v54.979M168.59 45c-.124.275-.313 3.087-.419 6.25l-.193 5.75H180.855l-.565-5.75c-.311-3.163-.769-5.975-1.017-6.25-.248-.275-2.701-.5-5.453-.5-2.751 0-5.105.225-5.23.5m15.747-.213c-.639.398-1.295 3.196-1.456 6.218l-.294 5.495 6.161.266 6.161.266-.307-5.535c-.169-3.045-.486-5.689-.705-5.877-.965-.83-8.509-1.487-9.56-.833M60 57.516v11.601l5.75-4.405c3.162-2.423 6.663-4.887 7.778-5.475 1.689-.891 2.023-2.045 2-6.903L75.5 46.5l-7.75-.292-7.75-.292v11.6M168 65v6l13.25-.002 13.25-.002.199-5.998.199-5.998H183v5.5c0 3.025-.45 5.5-1 5.5s-1-2.475-1-5.5V59h-13v6m-73 7c0 .55.45 1 1 1s1-.45 1-1-.45-1-1-1-1 .45-1 1m-1 6c0 .55.675 1 1.5 1s1.5-.45 1.5-1-.675-1-1.5-1-1.5.45-1.5 1m17.158 3c0 1.375.227 1.938.504 1.25.278-.687.278-1.812 0-2.5-.277-.687-.504-.125-.504 1.25m-16.422 4.598c-.329.329-.352 1.24-.05 2.025.418 1.09.872 1.158 1.92.289.754-.626 1.125-1.538.824-2.025-.633-1.024-1.831-1.152-2.694-.289M82 86.803c0 .441 2.475.779 5.499.75 3.024-.029 5.499-.391 5.5-.803C93 86.338 90.525 86 87.5 86c-3.025 0-5.5.361-5.5.803m17-.42c0 .849 5.085 1.288 5.583.483.294-.476-.842-.866-2.524-.866S99 86.173 99 86.383m-3.93 5.308c-.038 1.205.38 2.469.93 2.809 1.183.731 1.183-.248 0-3-.829-1.928-.862-1.921-.93.191m.513 5.175c-.431.697-.513 1.537-.183 1.867.895.895 1.871-.421 1.387-1.871-.338-1.016-.574-1.016-1.204.004m25.111 47.773c-.799.799.104 2.361 1.365 2.361.518 0 .941-.675.941-1.5 0-1.546-1.18-1.987-2.306-.861M60 178.675l-3.5.416.031 17.705.03 17.704 3.72.31 3.719.311V201.248l5.541-.46c6.616-.548 10.112-2.859 12.183-8.052 1.35-3.386 1.334-4.094-.166-7.255-.914-1.927-2.784-4.238-4.156-5.137-2.52-1.652-10.846-2.45-17.402-1.669m30.75.014c-1.582.414-1.75 2.128-1.75 17.884 0 9.585.338 17.478.75 17.541.412.063 1.987.261 3.5.44l2.75.326V200h3.443c4.098 0 5.889 2.115 7.667 9.054 1.164 4.542 1.404 4.785 5.06 5.134l3.837.366-.625-3.527c-.343-1.94-1.02-3.955-1.503-4.477-.484-.522-.879-1.69-.879-2.595 0-.905-.9-2.46-2-3.455-2.642-2.391-2.532-3.181.838-6.017 2.399-2.019 2.803-3.051 2.618-6.685-.29-5.706-.236-5.642-2.489-2.937-1.082 1.298-1.967 2.009-1.967 1.579 0-.431.754-1.616 1.676-2.635 1.073-1.185 1.331-2.198.715-2.814-2.116-2.116-16.498-3.646-21.641-2.302M122 195.94V214h3c1.65 0 3.327-.113 3.727-.25 1.174-.404 1.36-3.75.208-3.75-.579 0-.781-.441-.448-.979.333-.539.697-7.626.809-15.75l.204-14.771-3.75-.31-3.75-.311v18.061m18.227-17.221-2.273.426.273 17.608.273 17.608 5.026.378c17.486 1.312 26.833-5.318 26.826-19.027-.004-8.145-2.936-13.463-8.612-15.621-2.736-1.04-18.066-2.018-21.513-1.372M177 196.124V214l10 .15c5.5.083 10.563.195 11.25.25.688.055 1.392-1.138 1.566-2.65l.317-2.75h-7.442c-7.319 0-7.45-.045-7.983-2.75-.298-1.512-.296-4.016.004-5.564.538-2.773.641-2.811 7.064-2.578 6.369.231 6.524.176 6.798-2.394.277-2.598.194-2.633-6.897-2.922l-7.177-.292v-8l7.75-.292c7.687-.29 7.75-.314 7.749-3l-.001-2.708-11.499-.126-11.499-.126v17.876M68 180.393c0 .216.698.661 1.552.989.89.341 1.291.173.941-.393-.587-.951-2.493-1.406-2.493-.596m40.564 2.314c-.542 1.425-.428 1.54.56.56.684-.679.991-1.486.683-1.793-.308-.308-.867.247-1.243 1.233m-9.064.248c-2.789.519-3.037.925-3.526 5.781-.316 3.143-.117 5.369.5 5.59 2.477.889 7.957-.312 9.789-2.145 4.029-4.029-.618-10.369-6.763-9.226m48.25-.263c-1.786.464-1.803.64-2.194 23.558-.047 2.709.353 3.308 2.4 3.597 3.161.446 10.044-1.606 10.044-2.994 0-.587.563-.851 1.25-.588.782.3 1.309-.491 1.408-2.112.087-1.425.649-2.755 1.25-2.956 1.555-.518 1.352-7.793-.306-10.999-1.691-3.27-4.404-5.732-7.102-6.444-1.1-.29-2.675-.75-3.5-1.022-.825-.272-2.287-.29-3.25-.04M64 189.368V196h3.035c4.965 0 7.915-2.564 7.597-6.602-.346-4.398-1.445-5.429-6.511-6.109L64 182.737v6.631" fill="#1976D2" fill-rule="evenodd"/></svg>